<svg width="32" height="32" viewBox="0 0 32 32" fill="none" xmlns="http://www.w3.org/2000/svg">
                            <path d="M4.2483 28.954C2.70187 24.5259 0.86851 19.9679 1.00744 15.1922C1.08794 12.4251 1.66378 9.49893 2.7698 6.954C3.60481 5.03267 4.86737 3.26364 6.30636 1.74971C6.58351 1.45812 6.82065 1.23078 7.11066 0.969061C7.20654 0.882537 7.3441 0.683573 7.44184 0.767986C7.51187 0.828462 7.59207 1.14487 7.5956 1.15831C7.84865 2.11989 8.0482 3.10802 8.22248 4.08572C8.55282 5.93881 8.62626 7.76269 8.61281 9.63894C8.5933 12.3605 8.22467 15.0116 7.6784 17.6701C7.07786 20.5927 6.16155 23.397 5.46657 26.2927C5.22685 27.2915 4.8146 28.1407 4.35475 29.0604" stroke="#EAC818" stroke-linecap="round"></path>
                            <path d="M4.03526 30.2476C5.19508 28.4826 6.30194 24.9528 6.93311 22.9692C7.25274 21.9646 7.43161 20.9311 7.71967 19.9175C8.24103 18.0831 8.74661 16.2324 9.13311 14.3643C9.52233 12.4831 10.9362 10.4226 12.2557 9.06541C14.5588 6.6965 18.056 5.81249 21.1621 5.10897C22.5041 4.805 23.8351 4.71267 25.16 4.38746C25.5411 4.2939 25.9296 4.23351 26.3132 4.1509C26.6223 4.08433 27.2092 3.81601 26.8928 4.36972C25.9337 6.048 24.6866 7.58377 23.646 9.21326C22.3942 11.1735 21.2151 13.1838 20.0326 15.1864C17.3641 19.7056 15.047 24.4019 10.925 27.8245C9.24944 29.2159 7.18737 30.0282 5.14709 30.7283C4.8134 30.8428 3.75154 31.2602 4.03526 30.5509" stroke="#EAC818" stroke-linecap="round"></path>
                            <path d="M17.874 19.4798C19.2327 18.4074 20.5666 17.2553 22.1261 16.4755C22.8745 16.1014 23.6874 15.9029 24.4858 15.6712C26.0321 15.2226 27.5879 14.8822 29.1696 14.5831C29.2265 14.5723 31.2225 14.1278 31.1094 14.4057C30.7399 15.3136 29.8524 16.274 29.2761 17.0019C27.7865 18.8835 26.1619 20.6239 24.5213 22.3718C22.4712 24.5558 20.5884 27.0223 17.868 28.4099C16.0112 29.3571 14.0243 29.7817 11.9718 30.0185C9.03218 30.3577 6.95391 30.7476 4.00006 30.7476" stroke="#EAC818" stroke-linecap="round"></path>
                            <path d="M4.14193 28.741C4.12383 29.5552 4.04536 30.3031 3.82257 31.0829" stroke="#EAC818" stroke-linecap="round"></path>
                        </svg>