<svg width="162" height="161" viewBox="0 0 162 161" fill="none" class="arrow-svg" xmlns="http://www.w3.org/2000/svg">
                        <path d="M101.039 154.588C105.786 152.455 109.959 149.182 114.528 144.041C121.781 135.819 126.371 126.54 128.303 116.063C128.743 113.711 129.277 104.731 129.015 103.848C128.951 103.528 128.877 102.772 128.888 102.164C128.969 99.4605 126.845 90.5806 125.274 86.9795C124.683 85.615 124.085 84.463 123.983 84.4147C123.857 84.3542 123.666 83.9743 123.528 83.5476C123.402 83.1625 122.859 82.2177 122.373 81.4803C121.861 80.7308 121.451 80.0296 121.482 79.9C121.501 79.729 121.341 79.5442 121.164 79.4596C120.987 79.375 120.532 78.8327 120.13 78.2438C119.534 77.3457 118.48 75.9762 118.157 75.6775C118.081 75.6412 117.362 74.9367 116.57 74.125C113.83 71.4086 112.813 70.7421 106.452 67.7383L100.268 64.819L100.672 62.7391C101.216 60.0408 101.429 57.581 101.273 55.6308C101.217 54.774 101.211 53.9414 101.295 53.7652C101.478 53.3834 98.6401 43.3326 98.1961 42.8317C97.9994 42.5934 97.7858 42.1305 97.7351 41.7816C97.6844 41.4327 97.4792 41.0821 97.3275 41.0096C97.1505 40.925 96.9088 40.5209 96.757 40.1236C96.4589 39.1874 94.3313 35.9699 93.8762 35.7524C93.6739 35.6557 93.5783 35.4657 93.6625 35.2895C93.7327 35.1427 93.6006 34.8992 93.3478 34.7783C93.0949 34.6575 92.8476 34.395 92.752 34.205C92.6958 33.9977 92.2518 33.4969 91.7937 33.0255C91.3217 32.5834 90.2539 31.568 89.4333 30.8151C84.9036 26.4495 77.6491 22.261 72.6456 21.0964C70.578 20.6133 65.1786 20.0172 64.3865 20.1798C64.1787 20.2247 63.1983 20.2613 62.1814 20.2443C61.1645 20.2273 59.6672 20.3055 58.8245 20.4439C57.9959 20.553 56.9228 20.6535 56.4453 20.6778C55.5941 20.7039 55.6082 20.6746 57.4196 19.4839C67.3085 13.0258 72.0351 9.44018 71.2006 9.04139C70.5938 8.75136 67.2092 9.98394 59.3082 13.3874C54.6289 15.4443 49.6547 17.7932 48.2953 18.6228C46.8967 19.4696 45.0374 20.5653 44.1161 21.063C42.7989 21.8045 42.2906 22.2831 41.642 23.3802C40.8952 24.6828 40.8476 24.9126 41.1626 26.0733C41.5001 27.3169 41.5254 27.329 44.4333 28.7187C46.0263 29.48 48.2964 30.3845 49.4538 30.7573C50.6254 31.1007 52.547 31.6944 53.7298 32.0793C61.2225 34.4696 63.9279 35.1131 64.8098 34.6327C65.1918 34.4184 65.3321 34.1247 65.3712 33.4579C65.4412 32.6616 65.5086 32.5855 65.7671 32.8895C65.9386 33.1157 66.1324 33.1001 66.2447 32.8652C66.357 32.6302 66.3063 32.2813 66.1208 32.0844C65.6403 31.5301 58.8355 28.3501 57.001 27.8342C56.0964 27.5822 53.8488 26.7606 51.9974 26.0201C48.8535 24.7341 48.6906 24.6201 49.2439 24.3073C49.9685 23.896 55.7692 23.4573 58.8817 23.5739C60.9661 23.6321 65.0901 24.232 69.4867 25.1066C71.7875 25.5567 81.0422 29.9797 83.0147 31.5718C86.7856 34.6005 89.458 37.393 91.0797 40.044C91.3214 40.4482 92.0269 41.5069 92.6367 42.3756C93.2719 43.2563 93.8115 44.2719 93.8763 44.5914C93.941 44.911 94.1209 45.2495 94.2726 45.322C94.6013 45.4791 96.8006 53.421 96.6041 53.8322C96.534 53.979 96.5538 54.4575 96.6775 54.9135C96.762 55.3868 96.6922 56.8326 96.5381 58.1299C96.37 59.4566 96.2412 60.766 96.2413 61.0908C96.2414 61.4155 96.0816 62.205 95.8767 62.8286C95.5905 63.8824 95.4978 63.9463 94.9415 63.6805C93.9554 63.2092 89.1096 62.9497 86.6769 63.2302C86.1208 63.2891 85.2415 63.374 84.7247 63.4156C84.1825 63.4451 81.7894 64.3579 79.3908 65.4123C75.6159 67.0716 74.7059 67.6108 72.6642 69.4131C70.4232 71.3726 70.2182 71.6715 68.837 74.3666C68.0145 75.9577 67.1976 77.732 67.0208 78.2969C66.5578 79.9156 67.3875 83.054 68.8124 85.142C69.8832 86.7361 70.3075 87.0832 71.9764 87.8807C73.6453 88.6783 74.1313 88.7663 76.0443 88.5982C78.3055 88.4161 83.3304 86.4161 85.7794 84.7364C87.9897 83.2313 90.9693 80.5063 93.0332 78.1375C95.4342 75.3885 96.0491 74.4919 97.2759 72.1198C97.8037 71.1454 98.354 70.2539 98.5365 70.1969C99.0477 69.9722 108.446 74.3553 109.983 75.5589C112.495 77.517 114.706 79.5841 115.611 80.8103C119.588 86.1381 121.069 89.0829 122.681 94.94C123.384 97.3685 123.854 99.5051 123.755 99.7107C123.657 99.9163 123.674 100.141 123.775 100.189C123.977 100.286 124.473 105.357 124.305 105.71C124.263 105.798 124.283 106.601 124.376 107.511C124.469 108.422 124.461 109.284 124.376 109.46C124.292 109.636 124.172 110.733 124.113 111.896C123.971 114.533 123.441 117.852 122.689 120.595C121.833 123.686 118.246 131.712 116.193 135.097C112.173 141.689 104.279 150.797 99.463 154.376C98.6682 154.934 98.0391 155.535 98.0729 155.659C98.1066 155.784 99.452 155.308 101.039 154.588ZM72.4349 81.1369C71.4681 79.8451 71.5212 78.8242 72.6722 76.7406C74.1995 73.9349 76.567 72.0359 80.8924 70.1345C84.2348 68.6653 85.3134 68.4231 89.0523 68.334C90.058 68.3095 93.2521 68.6455 93.6061 68.8146C93.6819 68.8509 93.4771 69.4745 93.1262 70.2088C92.3121 71.9122 88.1168 76.7259 85.9487 78.4677C85.0051 79.2073 84.2693 79.9019 84.2918 79.9848C84.3706 80.275 79.4329 82.6775 77.9751 83.0631C75.7224 83.6821 73.8036 83.0176 72.4349 81.1369Z" fill="url(#paint0_linear_402_6742)"></path>
                        <defs>
                            <linearGradient id="paint0_linear_402_6742" x1="212.336" y1="-8.22515" x2="32.9042" y2="-76.7226" gradientUnits="userSpaceOnUse">
                                <stop stop-color="#DA4C38"></stop>
                                <stop offset="1" stop-color="#E6A13A"></stop>
                            </linearGradient>
                        </defs>
                    </svg>